# xmcd
#
# Track frame offsets:
#	150
#	18877
#	38381
#	73482
#	94209
#	129551
#	152298
#	188665
#	207328
#	254651
#
# Disc length: 3792 seconds
#
# Revision: 1
# Processed by: cddbd v1.5.2PL0 Copyright (c) Steve Scherf et al.
# Submitted via: EasyCDDAExtractor 12.0.1.1
#
DISCID=820ece0a
DTITLE=Snakewater - Dirty Rock'n'Rolla
DYEAR=2010
DGENRE=Blues
TTITLE0=Muddy Water
TTITLE1=Rock and Roll Fantasy
TTITLE2=Woman (Don't Steal My Heart
TTITLE3=Devil's Got A Hold On You
TTITLE4=N.J
TTITLE5=In Too Deep
TTITLE6=Promised Land
TTITLE7=(I've Got A) Good Looking Woman
TTITLE8=Bad Part Of Town
TTITLE9=Dirty Rock'n'Rolla
EXTD=
EXTT0=
EXTT1=
EXTT2=
EXTT3=
EXTT4=
EXTT5=
EXTT6=
EXTT7=
EXTT8=
EXTT9=
PLAYORDER=
